# xmcd
# 
# Track frame offsets:
#     150
#     13067
#     23157
#     40348
#     53757
#     69616
#     81661
#     92207
#     104134
#     119116
#     129502
#     140820
#     151619
#     167872
#     178769
# 
# Disc length: 2605
# 
# Revision: 1
# Processed by: cddbd v1.5.2PL0 Copyright (c) Steve Scherf et al.
# Submitted via: BonkEnc v1.0.8
# 
DISCID=dd0a2b0f
DTITLE=John Lee Hooker - I'm In The Mood
DYEAR=1993
DGENRE=Blues
TTITLE0=Baby Lee
TTITLE1=Dimples
TTITLE2=Blues Before Sunrise
TTITLE3=I'm Going Upstairs
TTITLE4=Thelma
TTITLE5=I'm In The Mood
TTITLE6=Let's Make It
TTITLE7=Whiskey And Wimmen
TTITLE8=Crawling King Snake
TTITLE9=Old Time Shimmy
TTITLE10=Little Wheel
TTITLE11=No Shoes
TTITLE12=Process
TTITLE13=Good Rochin' Mama
TTITLE14=When My First Wife Left Me
EXTD=
EXTT0=
EXTT1=
EXTT2=
EXTT3=
EXTT4=
EXTT5=
EXTT6=
EXTT7=
EXTT8=
EXTT9=
EXTT10=
EXTT11=
EXTT12=
EXTT13=
EXTT14=
PLAYORDER=
